<?xml version="1.0" encoding="UTF-8"?>
<svg version="1.1" xmlns="http://www.w3.org/2000/svg" width="96" height="96">
<path d="M0 0 C31.68 0 63.36 0 96 0 C96 31.68 96 63.36 96 96 C64.32 96 32.64 96 0 96 C0 64.32 0 32.64 0 0 Z " fill="#FEFEFE" transform="translate(0,0)"/>
<path d="M0 0 C8.57361675 4.19930723 16.78065336 8.55777579 24.84375 13.69140625 C27.93544806 15.31374124 27.93544806 15.31374124 31.15234375 14.38671875 C33.66312858 13.16404575 35.81450941 11.89329497 38.0625 10.25 C41.64365861 7.94199094 41.64365861 7.94199094 44.6875 8.4375 C45.450625 8.953125 46.21375 9.46875 47 10 C48.3921875 10.86625 48.3921875 10.86625 49.8125 11.75 C52 14 52 14 52.5625 17 C51.86975543 20.69463771 50.78850667 21.54792431 48 24 C46.31932392 25.1128118 44.59915355 26.16741111 42.8515625 27.171875 C41.8524585 27.75050293 40.85335449 28.32913086 39.82397461 28.92529297 C38.76831299 29.52744629 37.71265137 30.12959961 36.625 30.75 C35.54677979 31.36891113 34.46855957 31.98782227 33.35766602 32.62548828 C31.2139182 33.85595865 29.0691649 35.08467916 26.92333984 36.31152344 C24.44539562 37.74274627 21.99214233 39.20295347 19.55078125 40.6953125 C18.9254248 41.07204102 18.30006836 41.44876953 17.65576172 41.83691406 C16.06632545 42.79717024 14.48400168 43.76917271 12.90234375 44.7421875 C9.34186684 46.28522056 6.84264671 46.44355639 3 46 C0.92141212 44.45160789 0.10478211 43.57891861 -0.36076355 41.00679016 C-0.35410172 40.24956161 -0.34743988 39.49233307 -0.34057617 38.7121582 C-0.34034958 37.85149246 -0.34012299 36.99082672 -0.33988953 36.1040802 C-0.31666374 34.71644722 -0.31666374 34.71644722 -0.29296875 33.30078125 C-0.28872391 32.35059616 -0.28447906 31.40041107 -0.28010559 30.4214325 C-0.26330484 27.38483412 -0.22564992 24.34889798 -0.1875 21.3125 C-0.17245497 19.25456687 -0.15876625 17.19662335 -0.14648438 15.13867188 C-0.11339671 10.09219252 -0.06160462 5.04620856 0 0 Z " fill="#A776FB" transform="translate(25,31)"/>
<path d="M0 0 C5.20522454 1.39652366 9.59527298 3.9997645 14.2734375 6.6328125 C15.68109375 7.40915039 15.68109375 7.40915039 17.1171875 8.20117188 C23.33442721 11.64899196 29.45070867 15.24955232 35.5234375 18.9453125 C34.23543437 22.8093219 32.82967432 23.28227171 29.3359375 25.2578125 C27.92248047 26.08732422 27.92248047 26.08732422 26.48046875 26.93359375 C22.65307284 28.24309909 21.23953628 27.41454785 17.5234375 25.9453125 C15.63795263 24.99154529 13.77704593 23.98790138 11.94140625 22.94140625 C10.92755859 22.36583984 9.91371094 21.79027344 8.86914062 21.19726562 C7.82693359 20.59849609 6.78472656 19.99972656 5.7109375 19.3828125 C4.64939453 18.78017578 3.58785156 18.17753906 2.49414062 17.55664062 C-5.31940569 13.10246931 -5.31940569 13.10246931 -6.4765625 11.9453125 C-7.05724368 4.86100206 -7.05724368 4.86100206 -4.8515625 1.3828125 C-2.4765625 -0.0546875 -2.4765625 -0.0546875 0 0 Z " fill="#FE962C" transform="translate(31.4765625,19.0546875)"/>
<path d="M0 0 C1.98036486 0.97674104 3.95926133 1.95645982 5.9375 2.9375 C7.03964844 3.48277344 8.14179687 4.02804688 9.27734375 4.58984375 C12 6 12 6 13 7 C13.12579806 9.71552277 13.18865406 12.40424427 13.203125 15.12109375 C13.20882507 15.93618912 13.21452515 16.75128448 13.22039795 17.59107971 C13.22986127 19.31860042 13.2363872 21.04613929 13.24023438 22.77368164 C13.24994687 25.42300726 13.28095964 28.07155958 13.3125 30.72070312 C13.31902903 32.39582871 13.32427989 34.07095986 13.328125 35.74609375 C13.3404718 36.54196396 13.3528186 37.33783417 13.36553955 38.15782166 C13.35644531 40.39233398 13.35644531 40.39233398 13 44 C9.30513897 46.46324069 7.36706908 46.38991688 3 46 C0.90849764 44.45793415 0.10565876 43.5837621 -0.36076355 41.00679016 C-0.35410172 40.24956161 -0.34743988 39.49233307 -0.34057617 38.7121582 C-0.34034958 37.85149246 -0.34012299 36.99082672 -0.33988953 36.1040802 C-0.31666374 34.71644722 -0.31666374 34.71644722 -0.29296875 33.30078125 C-0.28872391 32.35059616 -0.28447906 31.40041107 -0.28010559 30.4214325 C-0.26330484 27.38483412 -0.22564992 24.34889798 -0.1875 21.3125 C-0.17245497 19.25456687 -0.15876625 17.19662335 -0.14648438 15.13867188 C-0.11339671 10.09219252 -0.06160462 5.04620856 0 0 Z " fill="#1DC4FE" transform="translate(25,31)"/>
<path d="M0 0 C2.454375 1.27875 4.90875 2.5575 7.4375 3.875 C8.5985022 4.47417236 8.5985022 4.47417236 9.78295898 5.08544922 C14.88888889 7.77777778 14.88888889 7.77777778 16 10 C13.5224077 11.50265526 11.04304235 13.00222919 8.5625 14.5 C7.85544922 14.92925781 7.14839844 15.35851563 6.41992188 15.80078125 C1.11328125 19 1.11328125 19 0 19 C0 12.73 0 6.46 0 0 Z " fill="#FAF8FB" transform="translate(38,38)"/>
<path d="M0 0 C0 0.99 0 1.98 0 3 C-0.66 3.66 -1.32 4.32 -2 5 C-2.46486718 8.12196336 -2.46486718 8.12196336 -2.625 11.625 C-2.69976562 12.81351563 -2.77453125 14.00203125 -2.8515625 15.2265625 C-2.90054688 16.14179687 -2.94953125 17.05703125 -3 18 C-2.01 18.33 -1.02 18.66 0 19 C-6.75 23 -6.75 23 -9 23 C-10.38026906 7.69775785 -10.38026906 7.69775785 -6.99609375 3.53515625 C-4.70523502 2.06886326 -2.55376058 0.92725831 0 0 Z " fill="#B54AF8" transform="translate(47,51)"/>
<path d="M0 0 C0 0.99 0 1.98 0 3 C-0.66 3.66 -1.32 4.32 -2 5 C-2.46486718 8.12196336 -2.46486718 8.12196336 -2.625 11.625 C-2.69976562 12.81351563 -2.77453125 14.00203125 -2.8515625 15.2265625 C-2.90054688 16.14179687 -2.94953125 17.05703125 -3 18 C-2.01 18.33 -1.02 18.66 0 19 C-1.98 19.99 -1.98 19.99 -4 21 C-6.11860891 18.88139109 -5.32270498 14.53450493 -5.375 11.625 C-5.41238281 10.84382813 -5.44976562 10.06265625 -5.48828125 9.2578125 C-5.52216056 7.05942145 -5.50307563 5.14179579 -5 3 C-2.4765625 0.9609375 -2.4765625 0.9609375 0 0 Z " fill="#C861F8" transform="translate(47,51)"/>
<path d="M0 0 C3.96 1.98 7.92 3.96 12 6 C12 7.65 12 9.3 12 11 C9.625 10.25 9.625 10.25 7 9 C6.3162955 7.67532254 5.65035814 6.34136367 5 5 C3.34738161 3.97695052 1.68208635 2.97383946 0 2 C0 1.34 0 0.68 0 0 Z " fill="#2495F8" transform="translate(25,31)"/>
<path d="M0 0 C0.66 0 1.32 0 2 0 C2.33 4.95 2.66 9.9 3 15 C2.01 15 1.02 15 0 15 C0 10.05 0 5.1 0 0 Z " fill="#BD40F7" transform="translate(40,57)"/>
<path d="M0 0 C1.36125 0.37125 1.36125 0.37125 2.75 0.75 C2.75 1.08 2.75 1.41 2.75 1.75 C1.615625 2.059375 0.48125 2.36875 -0.6875 2.6875 C-4.03775099 3.37924531 -4.03775099 3.37924531 -5.25 4.75 C-5.69979055 9.01080589 -5.69979055 9.01080589 -3.75 12.625 C-3.255 12.99625 -2.76 13.3675 -2.25 13.75 C-4.725 12.76 -4.725 12.76 -7.25 11.75 C-7.73259861 4.51102088 -7.73259861 4.51102088 -5.625 1.1875 C-3.25 -0.25 -3.25 -0.25 0 0 Z " fill="#FDAC24" transform="translate(32.25,19.25)"/>
</svg>
